<svg xmlns="http://www.w3.org/2000/svg" viewBox="0 0 919.54 147.65" width="920" height="148" role="img" aria-label="HAP HEIGHT — Outdoor Solutions">
<title>HAP HEIGHT — Outdoor Solutions</title>
<g fill="#16301f">
<path transform="translate(6.000,97.025) scale(0.06348,-0.06348)" d="M1135 686Q1095 687 1035.0 687.5Q975 688 904.5 689.0Q834 690 757.5 690.5Q681 691 608.0 691.5Q535 692 469.0 691.0Q403 690 354 688V391Q354 306 356.5 242.5Q359 179 362.5 133.0Q366 87 371.5 56.0Q377 25 383 4V0H143V4Q149 25 154.5 56.0Q160 87 164.0 133.0Q168 179 170.0 242.5Q172 306 172 391V1042Q172 1127 170.0 1190.5Q168 1254 164.0 1300.5Q160 1347 154.5 1378.0Q149 1409 143 1430V1434H383V1430Q377 1409 371.5 1378.0Q366 1347 362.5 1300.5Q359 1254 356.5 1190.5Q354 1127 354 1042V786Q406 784 472.0 783.5Q538 783 610.0 783.5Q682 784 756.5 785.0Q831 786 900.5 787.5Q970 789 1030.5 791.0Q1091 793 1135 795V1042Q1135 1127 1132.5 1190.5Q1130 1254 1126.5 1300.5Q1123 1347 1117.5 1378.0Q1112 1409 1106 1430V1434H1346V1430Q1340 1409 1334.5 1378.0Q1329 1347 1325.0 1300.5Q1321 1254 1319.0 1190.5Q1317 1127 1317 1042V391Q1317 306 1319.0 242.5Q1321 179 1325.0 133.0Q1329 87 1334.5 56.0Q1340 25 1346 4V0H1106V4Q1112 25 1117.5 56.0Q1123 87 1126.5 133.0Q1130 179 1132.5 242.5Q1135 306 1135 391Z"/>
<path transform="translate(118.067,97.025) scale(0.06348,-0.06348)" d="M1135 0V4Q1137 9 1138.0 19.0Q1139 29 1139 37Q1139 68 1130.5 105.5Q1122 143 1098 199L977 471Q921 473 828.0 473.0Q735 473 627 473Q548 473 474.5 473.0Q401 473 342 471L227 207Q212 170 195.0 126.0Q178 82 178 37Q178 24 180.0 15.5Q182 7 184 4V0H-20V4Q-2 23 25.0 71.5Q52 120 84 193L657 1464H737L1280 242Q1299 199 1319.5 158.5Q1340 118 1358.0 86.0Q1376 54 1390.0 32.0Q1404 10 1409 4V0ZM487 559Q545 559 606.0 559.5Q667 560 725.5 560.5Q784 561 838.0 561.5Q892 562 936 563L655 1198L379 559Z"/>
<path transform="translate(223.786,97.025) scale(0.06348,-0.06348)" d="M354 635Q452 617 533.5 631.5Q615 646 673.5 693.5Q732 741 764.5 822.0Q797 903 797 1020Q797 1101 780.0 1167.5Q763 1234 729.5 1280.5Q696 1327 645.0 1352.5Q594 1378 526 1378Q483 1378 451.0 1374.5Q419 1371 397 1367Q371 1362 354 1356ZM143 1434Q163 1432 185 1430Q204 1428 227.5 1427.5Q251 1427 276 1427Q315 1427 381.5 1436.5Q448 1446 551 1446Q647 1446 728.5 1418.0Q810 1390 870.0 1336.0Q930 1282 963.5 1204.5Q997 1127 997 1028Q997 895 944.0 798.0Q891 701 802.0 641.0Q713 581 597.0 559.5Q481 538 354 557V391Q354 306 356.5 242.5Q359 179 362.5 133.0Q366 87 371.5 56.0Q377 25 383 4V0H143V4Q149 25 154.5 56.0Q160 87 164.0 133.0Q168 179 170.0 242.5Q172 306 172 391V1042Q172 1127 170.0 1190.5Q168 1254 164.0 1300.5Q160 1347 154.5 1378.0Q149 1409 143 1430Z"/>
<path transform="translate(364.447,97.025) scale(0.06348,-0.06348)" d="M1135 686Q1095 687 1035.0 687.5Q975 688 904.5 689.0Q834 690 757.5 690.5Q681 691 608.0 691.5Q535 692 469.0 691.0Q403 690 354 688V391Q354 306 356.5 242.5Q359 179 362.5 133.0Q366 87 371.5 56.0Q377 25 383 4V0H143V4Q149 25 154.5 56.0Q160 87 164.0 133.0Q168 179 170.0 242.5Q172 306 172 391V1042Q172 1127 170.0 1190.5Q168 1254 164.0 1300.5Q160 1347 154.5 1378.0Q149 1409 143 1430V1434H383V1430Q377 1409 371.5 1378.0Q366 1347 362.5 1300.5Q359 1254 356.5 1190.5Q354 1127 354 1042V786Q406 784 472.0 783.5Q538 783 610.0 783.5Q682 784 756.5 785.0Q831 786 900.5 787.5Q970 789 1030.5 791.0Q1091 793 1135 795V1042Q1135 1127 1132.5 1190.5Q1130 1254 1126.5 1300.5Q1123 1347 1117.5 1378.0Q1112 1409 1106 1430V1434H1346V1430Q1340 1409 1334.5 1378.0Q1329 1347 1325.0 1300.5Q1321 1254 1319.0 1190.5Q1317 1127 1317 1042V391Q1317 306 1319.0 242.5Q1321 179 1325.0 133.0Q1329 87 1334.5 56.0Q1340 25 1346 4V0H1106V4Q1112 25 1117.5 56.0Q1123 87 1126.5 133.0Q1130 179 1132.5 242.5Q1135 306 1135 391Z"/>
<path transform="translate(476.514,97.025) scale(0.06348,-0.06348)" d="M143 1434Q268 1434 391.5 1435.0Q515 1436 618.0 1437.5Q721 1439 794.0 1442.0Q867 1445 893 1450L844 1317Q811 1326 767 1333Q729 1339 674.5 1344.5Q620 1350 549 1350Q525 1350 491.5 1348.5Q458 1347 427 1345Q391 1343 354 1341V795Q457 796 540.0 801.0Q623 806 681 811Q749 817 801 825L770 680Q701 689 629 697Q567 704 494.0 709.5Q421 715 354 715V88Q472 88 571.0 98.0Q670 108 744 121Q830 135 901 154L872 -8Q860 -7 836.0 -6.0Q812 -5 782.5 -4.0Q753 -3 720.5 -2.5Q688 -2 659.0 -1.5Q630 -1 607.5 -0.5Q585 0 575 0H143V4Q149 25 154.5 56.0Q160 87 164.0 133.0Q168 179 170.0 242.5Q172 306 172 391V1042Q172 1127 170.0 1190.5Q168 1254 164.0 1300.5Q160 1347 154.5 1378.0Q149 1409 143 1430V1434Z"/>
<path transform="translate(557.794,97.025) scale(0.06348,-0.06348)" d="M152 4Q158 25 163.0 56.0Q168 87 172.0 133.0Q176 179 178.0 242.5Q180 306 180 391V1042Q180 1127 178.0 1190.5Q176 1254 172.0 1300.5Q168 1347 163.0 1378.0Q158 1409 152 1430V1434H391V1430Q385 1409 379.5 1378.0Q374 1347 370.5 1300.5Q367 1254 364.5 1190.5Q362 1127 362 1042V391Q362 306 364.5 242.5Q367 179 370.5 133.0Q374 87 379.5 56.0Q385 25 391 4V0H152Z"/>
<path transform="translate(609.812,97.025) scale(0.06348,-0.06348)" d="M1405 168Q1405 157 1402.5 145.0Q1400 133 1391 125Q1346 91 1293.5 62.5Q1241 34 1180.0 13.0Q1119 -8 1048.5 -19.5Q978 -31 897 -31Q715 -31 565.0 22.5Q415 76 307.5 174.0Q200 272 141.0 409.5Q82 547 82 715Q82 810 106.5 902.0Q131 994 178.0 1077.0Q225 1160 294.0 1229.5Q363 1299 451.5 1350.0Q540 1401 646.5 1429.5Q753 1458 877 1458Q925 1458 975.0 1453.5Q1025 1449 1074.0 1440.5Q1123 1432 1168.5 1420.0Q1214 1408 1255 1393L1323 1208L1315 1204Q1276 1239 1225.0 1269.0Q1174 1299 1116.0 1321.0Q1058 1343 994.5 1355.5Q931 1368 866 1368Q740 1368 635.0 1328.5Q530 1289 454.5 1214.0Q379 1139 337.0 1030.0Q295 921 295 782Q295 629 335.0 498.0Q375 367 454.0 271.0Q533 175 651.5 120.5Q770 66 928 66Q998 66 1053.0 77.0Q1108 88 1146.0 104.5Q1184 121 1203.5 140.5Q1223 160 1223 176V215Q1223 285 1221.0 336.0Q1219 387 1215.0 424.5Q1211 462 1206.0 489.0Q1201 516 1194 539V543H1434V539Q1428 518 1422.5 489.5Q1417 461 1413.0 422.0Q1409 383 1407.0 330.5Q1405 278 1405 209Z"/>
<path transform="translate(723.846,97.025) scale(0.06348,-0.06348)" d="M1135 686Q1095 687 1035.0 687.5Q975 688 904.5 689.0Q834 690 757.5 690.5Q681 691 608.0 691.5Q535 692 469.0 691.0Q403 690 354 688V391Q354 306 356.5 242.5Q359 179 362.5 133.0Q366 87 371.5 56.0Q377 25 383 4V0H143V4Q149 25 154.5 56.0Q160 87 164.0 133.0Q168 179 170.0 242.5Q172 306 172 391V1042Q172 1127 170.0 1190.5Q168 1254 164.0 1300.5Q160 1347 154.5 1378.0Q149 1409 143 1430V1434H383V1430Q377 1409 371.5 1378.0Q366 1347 362.5 1300.5Q359 1254 356.5 1190.5Q354 1127 354 1042V786Q406 784 472.0 783.5Q538 783 610.0 783.5Q682 784 756.5 785.0Q831 786 900.5 787.5Q970 789 1030.5 791.0Q1091 793 1135 795V1042Q1135 1127 1132.5 1190.5Q1130 1254 1126.5 1300.5Q1123 1347 1117.5 1378.0Q1112 1409 1106 1430V1434H1346V1430Q1340 1409 1334.5 1378.0Q1329 1347 1325.0 1300.5Q1321 1254 1319.0 1190.5Q1317 1127 1317 1042V391Q1317 306 1319.0 242.5Q1321 179 1325.0 133.0Q1329 87 1334.5 56.0Q1340 25 1346 4V0H1106V4Q1112 25 1117.5 56.0Q1123 87 1126.5 133.0Q1130 179 1132.5 242.5Q1135 306 1135 391Z"/>
<path transform="translate(835.913,97.025) scale(0.06348,-0.06348)" d="M520 1346Q402 1346 307.0 1335.5Q212 1325 143 1313Q63 1298 0 1280L29 1442Q41 1441 65.0 1440.0Q89 1439 118.5 1438.0Q148 1437 180.5 1436.5Q213 1436 242.0 1435.5Q271 1435 293.5 1434.5Q316 1434 326 1434H897Q907 1434 929.5 1434.5Q952 1435 981.0 1435.5Q1010 1436 1042.5 1436.5Q1075 1437 1104.5 1438.0Q1134 1439 1158.0 1440.0Q1182 1441 1194 1442L1223 1280Q1159 1298 1079 1313Q1010 1325 915.0 1335.5Q820 1346 702 1346V391Q702 306 704.5 242.5Q707 179 710.5 133.0Q714 87 719.5 56.0Q725 25 731 4V0H492V4Q498 25 503.0 56.0Q508 87 512.0 133.0Q516 179 518.0 242.5Q520 306 520 391Z"/>
</g>
<g fill="#b8942f">
<path transform="translate(257.297,141.650) scale(0.02500,-0.02500)" d="M439 -12Q355 -12 283.0 17.0Q211 46 157.5 98.5Q104 151 74.0 221.0Q44 291 44 373Q44 455 73.5 525.0Q103 595 156.5 647.0Q210 699 282.0 728.0Q354 757 439 757Q524 757 596.0 728.0Q668 699 721.5 647.0Q775 595 804.5 525.0Q834 455 834 373Q834 291 804.0 221.0Q774 151 720.5 98.5Q667 46 595.0 17.0Q523 -12 439 -12ZM439 128Q490 128 533.5 146.0Q577 164 610.0 196.5Q643 229 661.0 274.0Q679 319 679 373Q679 427 661.0 471.5Q643 516 610.0 549.0Q577 582 533.5 599.5Q490 617 439 617Q388 617 344.5 599.5Q301 582 268.0 549.0Q235 516 217.0 471.5Q199 427 199 373Q199 319 217.0 274.0Q235 229 268.0 196.5Q301 164 344.5 146.0Q388 128 439 128Z"/>
<path transform="translate(286.747,141.650) scale(0.02500,-0.02500)" d="M362 -12Q274 -12 205.0 25.0Q136 62 96.5 126.5Q57 191 57 273V745H212V283Q212 239 231.5 203.5Q251 168 285.0 148.0Q319 128 362 128Q406 128 439.5 148.0Q473 168 492.5 203.5Q512 239 512 283V745H667V273Q667 191 627.5 126.5Q588 62 519.0 25.0Q450 -12 362 -12Z"/>
<path transform="translate(312.347,141.650) scale(0.02500,-0.02500)" d="M200 0V610H11V745H541V610H355V0Z"/>
<path transform="translate(333.647,141.650) scale(0.02500,-0.02500)" d="M66 0V745H309Q429.6872727272727 745 518.8436363636364 697.0Q608 649 657.0 565.0Q706 481 706 372.5242290748899Q706 265 657.0 180.5Q608 96 518.8436363636364 48.0Q429.6872727272727 0 309 0ZM221 135H313Q385.6132075471698 135 438.8066037735849 164.5Q492 194 521.5 247.43037974683546Q551 300.8607594936709 551 373.43037974683546Q551 446 521.5357142857142 498.94174757281553Q492.07142857142856 551.8834951456311 439.0357142857143 580.9417475728155Q386 610 313 610H221Z"/>
<path transform="translate(359.622,141.650) scale(0.02500,-0.02500)" d="M439 -12Q355 -12 283.0 17.0Q211 46 157.5 98.5Q104 151 74.0 221.0Q44 291 44 373Q44 455 73.5 525.0Q103 595 156.5 647.0Q210 699 282.0 728.0Q354 757 439 757Q524 757 596.0 728.0Q668 699 721.5 647.0Q775 595 804.5 525.0Q834 455 834 373Q834 291 804.0 221.0Q774 151 720.5 98.5Q667 46 595.0 17.0Q523 -12 439 -12ZM439 128Q490 128 533.5 146.0Q577 164 610.0 196.5Q643 229 661.0 274.0Q679 319 679 373Q679 427 661.0 471.5Q643 516 610.0 549.0Q577 582 533.5 599.5Q490 617 439 617Q388 617 344.5 599.5Q301 582 268.0 549.0Q235 516 217.0 471.5Q199 427 199 373Q199 319 217.0 274.0Q235 229 268.0 196.5Q301 164 344.5 146.0Q388 128 439 128Z"/>
<path transform="translate(389.072,141.650) scale(0.02500,-0.02500)" d="M439 -12Q355 -12 283.0 17.0Q211 46 157.5 98.5Q104 151 74.0 221.0Q44 291 44 373Q44 455 73.5 525.0Q103 595 156.5 647.0Q210 699 282.0 728.0Q354 757 439 757Q524 757 596.0 728.0Q668 699 721.5 647.0Q775 595 804.5 525.0Q834 455 834 373Q834 291 804.0 221.0Q774 151 720.5 98.5Q667 46 595.0 17.0Q523 -12 439 -12ZM439 128Q490 128 533.5 146.0Q577 164 610.0 196.5Q643 229 661.0 274.0Q679 319 679 373Q679 427 661.0 471.5Q643 516 610.0 549.0Q577 582 533.5 599.5Q490 617 439 617Q388 617 344.5 599.5Q301 582 268.0 549.0Q235 516 217.0 471.5Q199 427 199 373Q199 319 217.0 274.0Q235 229 268.0 196.5Q301 164 344.5 146.0Q388 128 439 128Z"/>
<path transform="translate(418.522,141.650) scale(0.02500,-0.02500)" d="M66 0V745H351Q428 745 487.5 718.0Q547 691 581.0 638.0Q615 585 615 507Q615 431 580.0 377.5Q545 324 486 297L656 0H482L298 329L398 270H221V0ZM221 405H352Q385 405 409.0 418.0Q433 431 446.5 454.0Q460 477 460 507Q460 538 446.5 561.0Q433 584 409.0 597.0Q385 610 352 610H221Z"/>
<path transform="translate(454.697,141.650) scale(0.02500,-0.02500)" d="M337 -12Q267 -12 205.5 13.5Q144 39 99.5 86.0Q55 133 33 197L160 254Q188 193 237.5 158.0Q287 123 347 123Q379 123 402.0 133.0Q425 143 438.0 160.5Q451 178 451 202Q451 228 435.0 246.5Q419 265 385 276L239 324Q150 353 105.0 406.5Q60 460 60 535Q60 601 92.5 651.0Q125 701 183.5 729.0Q242 757 318 757Q385 757 442.0 734.0Q499 711 540.5 669.0Q582 627 603 568L477 511Q456 563 414.0 592.5Q372 622 318 622Q287 622 263.0 612.0Q239 602 226.0 583.5Q213 565 213 541Q213 515 230.0 495.5Q247 476 281 465L424 419Q514 390 558.5 338.0Q603 286 603 211Q603 146 569.0 95.5Q535 45 475.5 16.5Q416 -12 337 -12Z"/>
<path transform="translate(478.372,141.650) scale(0.02500,-0.02500)" d="M439 -12Q355 -12 283.0 17.0Q211 46 157.5 98.5Q104 151 74.0 221.0Q44 291 44 373Q44 455 73.5 525.0Q103 595 156.5 647.0Q210 699 282.0 728.0Q354 757 439 757Q524 757 596.0 728.0Q668 699 721.5 647.0Q775 595 804.5 525.0Q834 455 834 373Q834 291 804.0 221.0Q774 151 720.5 98.5Q667 46 595.0 17.0Q523 -12 439 -12ZM439 128Q490 128 533.5 146.0Q577 164 610.0 196.5Q643 229 661.0 274.0Q679 319 679 373Q679 427 661.0 471.5Q643 516 610.0 549.0Q577 582 533.5 599.5Q490 617 439 617Q388 617 344.5 599.5Q301 582 268.0 549.0Q235 516 217.0 471.5Q199 427 199 373Q199 319 217.0 274.0Q235 229 268.0 196.5Q301 164 344.5 146.0Q388 128 439 128Z"/>
<path transform="translate(507.822,141.650) scale(0.02500,-0.02500)" d="M66 0V745H221V135H536V0Z"/>
<path transform="translate(528.997,141.650) scale(0.02500,-0.02500)" d="M362 -12Q274 -12 205.0 25.0Q136 62 96.5 126.5Q57 191 57 273V745H212V283Q212 239 231.5 203.5Q251 168 285.0 148.0Q319 128 362 128Q406 128 439.5 148.0Q473 168 492.5 203.5Q512 239 512 283V745H667V273Q667 191 627.5 126.5Q588 62 519.0 25.0Q450 -12 362 -12Z"/>
<path transform="translate(554.597,141.650) scale(0.02500,-0.02500)" d="M200 0V610H11V745H541V610H355V0Z"/>
<path transform="translate(575.897,141.650) scale(0.02500,-0.02500)" d="M66 0V745H221V0Z"/>
<path transform="translate(590.572,141.650) scale(0.02500,-0.02500)" d="M439 -12Q355 -12 283.0 17.0Q211 46 157.5 98.5Q104 151 74.0 221.0Q44 291 44 373Q44 455 73.5 525.0Q103 595 156.5 647.0Q210 699 282.0 728.0Q354 757 439 757Q524 757 596.0 728.0Q668 699 721.5 647.0Q775 595 804.5 525.0Q834 455 834 373Q834 291 804.0 221.0Q774 151 720.5 98.5Q667 46 595.0 17.0Q523 -12 439 -12ZM439 128Q490 128 533.5 146.0Q577 164 610.0 196.5Q643 229 661.0 274.0Q679 319 679 373Q679 427 661.0 471.5Q643 516 610.0 549.0Q577 582 533.5 599.5Q490 617 439 617Q388 617 344.5 599.5Q301 582 268.0 549.0Q235 516 217.0 471.5Q199 427 199 373Q199 319 217.0 274.0Q235 229 268.0 196.5Q301 164 344.5 146.0Q388 128 439 128Z"/>
<path transform="translate(620.022,141.650) scale(0.02500,-0.02500)" d="M66 0V745H185L585 218L521 203V745H676V0H556L163 531L221 546V0Z"/>
<path transform="translate(646.072,141.650) scale(0.02500,-0.02500)" d="M337 -12Q267 -12 205.5 13.5Q144 39 99.5 86.0Q55 133 33 197L160 254Q188 193 237.5 158.0Q287 123 347 123Q379 123 402.0 133.0Q425 143 438.0 160.5Q451 178 451 202Q451 228 435.0 246.5Q419 265 385 276L239 324Q150 353 105.0 406.5Q60 460 60 535Q60 601 92.5 651.0Q125 701 183.5 729.0Q242 757 318 757Q385 757 442.0 734.0Q499 711 540.5 669.0Q582 627 603 568L477 511Q456 563 414.0 592.5Q372 622 318 622Q287 622 263.0 612.0Q239 602 226.0 583.5Q213 565 213 541Q213 515 230.0 495.5Q247 476 281 465L424 419Q514 390 558.5 338.0Q603 286 603 211Q603 146 569.0 95.5Q535 45 475.5 16.5Q416 -12 337 -12Z"/>
</g>
</svg>
