<?xml version="1.0" encoding="UTF-8" standalone="no"?>
<svg
   viewBox="0 0 174 48"
   width="174"
   height="48"
   version="1.1"
   id="svg10"
   sodipodi:docname="solieli-logo-source.svg"
   xmlns:inkscape="http://www.inkscape.org/namespaces/inkscape"
   xmlns:sodipodi="http://sodipodi.sourceforge.net/DTD/sodipodi-0.dtd"
   xmlns="http://www.w3.org/2000/svg"
   xmlns:svg="http://www.w3.org/2000/svg">
  <defs
     id="defs14" />
  <sodipodi:namedview
     id="namedview12"
     pagecolor="#ffffff"
     bordercolor="#000000"
     borderopacity="0.25"
     inkscape:showpageshadow="2"
     inkscape:pageopacity="0.0"
     inkscape:pagecheckerboard="0"
     inkscape:deskcolor="#d1d1d1" />
  <title
     id="title2">SOLIELI</title>
  <g
     fill="none"
     stroke="#1a1a1a"
     stroke-width="1.55"
     stroke-linecap="round"
     stroke-linejoin="round"
     transform="translate(3,12)"
     id="g6">
    <path
       d="m 12,6.3 a 4.4,4.4 0 0 1 4.4,4.4 M 12,6.3 a 4.4,4.4 0 0 0 -4.4,4.4 m 8.8,0 A 4.4,4.4 0 0 1 12,15.1 4.4,4.4 0 0 1 7.6,10.7 M 4,18.5 h 16"
       id="path4" />
  </g>
  <g
     aria-label="SOLIELI"
     id="text8"
     style="font-weight:600;font-size:18px;font-family:'Figtree SemiBold';letter-spacing:5.4;fill:#1a1a1a">
    <path
       d="m 47.634,31.216 q -0.99,0 -1.818,-0.234 -0.81,-0.234 -1.44,-0.648 -0.612,-0.414 -1.026,-0.918 -0.396,-0.522 -0.558,-1.08 l 2.052,-0.63 q 0.234,0.666 0.918,1.17 0.684,0.504 1.692,0.522 1.17,0 1.854,-0.486 0.684,-0.486 0.684,-1.278 0,-0.72 -0.576,-1.17 -0.576,-0.468 -1.548,-0.72 L 46.32,25.348 q -0.882,-0.234 -1.602,-0.684 -0.702,-0.45 -1.116,-1.134 -0.396,-0.684 -0.396,-1.62 0,-1.764 1.152,-2.736 1.152,-0.99 3.294,-0.99 1.206,0 2.106,0.378 0.918,0.36 1.512,1.008 0.594,0.63 0.882,1.44 l -2.016,0.648 q -0.27,-0.72 -0.936,-1.188 -0.666,-0.468 -1.656,-0.468 -1.026,0 -1.62,0.486 -0.576,0.486 -0.576,1.35 0,0.702 0.45,1.098 0.468,0.378 1.26,0.576 l 1.548,0.378 q 1.692,0.414 2.628,1.422 0.936,1.008 0.936,2.232 0,1.08 -0.522,1.908 -0.522,0.828 -1.548,1.296 -1.008,0.468 -2.466,0.468 z"
       id="path16" />
    <path
       d="m 65.472011,31.216 q -1.872,0 -3.312,-0.828 -1.44,-0.828 -2.268,-2.304 -0.81,-1.476 -0.81,-3.384 0,-1.908 0.81,-3.366 0.828,-1.476 2.25,-2.304 1.422,-0.846 3.276,-0.846 1.872,0 3.294,0.846 1.44,0.828 2.232,2.304 0.81,1.458 0.81,3.366 0,1.908 -0.81,3.384 -0.792,1.476 -2.214,2.304 -1.404,0.828 -3.258,0.828 z m 0,-1.908 q 1.224,0 2.16,-0.594 0.936,-0.594 1.458,-1.62 0.54,-1.044 0.54,-2.394 0,-1.332 -0.54,-2.376 -0.54,-1.044 -1.494,-1.62 -0.936,-0.594 -2.178,-0.594 -1.224,0 -2.178,0.594 -0.936,0.576 -1.494,1.62 -0.54,1.026 -0.54,2.376 0,1.35 0.54,2.394 0.558,1.026 1.512,1.62 0.972,0.594 2.214,0.594 z"
       id="path18" />
    <path
       d="M 79.368027,31 V 18.4 h 2.088 v 10.692 h 5.706 V 31 Z"
       id="path20" />
    <path
       d="M 94.308041,31 V 18.4 h 2.088 V 31 Z"
       id="path22" />
    <path
       d="M 104.78403,31 V 18.4 h 7.758 v 1.908 h -5.67 v 3.348 h 5.004 v 1.872 h -5.004 v 3.564 h 5.724 V 31 Z"
       id="path24" />
    <path
       d="M 120.80404,31 V 18.4 h 2.088 v 10.692 h 5.706 V 31 Z"
       id="path26" />
    <path
       d="M 135.74405,31 V 18.4 h 2.088 V 31 Z"
       id="path28" />
  </g>
</svg>
