<?xml version="1.0" encoding="UTF-8" standalone="no"?>
<svg
   viewBox="0 0 210 108"
   width="210"
   height="108"
   version="1.1"
   id="svg12"
   sodipodi:docname="trimnds-logo-source.svg"
   xmlns:inkscape="http://www.inkscape.org/namespaces/inkscape"
   xmlns:sodipodi="http://sodipodi.sourceforge.net/DTD/sodipodi-0.dtd"
   xmlns="http://www.w3.org/2000/svg"
   xmlns:svg="http://www.w3.org/2000/svg">
  <defs
     id="defs16" />
  <sodipodi:namedview
     id="namedview14"
     pagecolor="#ffffff"
     bordercolor="#000000"
     borderopacity="0.25"
     inkscape:showpageshadow="2"
     inkscape:pageopacity="0.0"
     inkscape:pagecheckerboard="0"
     inkscape:deskcolor="#d1d1d1" />
  <title
     id="title2">TRIMNDS</title>
  <g
     font-family="Gloock"
     font-weight="400"
     id="g10">
    <g
       aria-label="tri"
       id="text4"
       style="font-size:27px;letter-spacing:-0.7;fill:#c24e31">
      <path
         d="m 18.859,23.378 q -1.404,0 -2.295,-0.891 -0.891,-0.891 -0.891,-2.322 V 9.77 H 13.378 V 9.419 q 1.863,-0.135 3.321,-1.188 1.485,-1.053 2.43,-2.835 h 0.432 v 3.888 h 3.591 l -0.27,0.486 h -3.321 v 9.801 q 0,2.16 1.458,2.16 0.486,0 1.107,-0.297 0.648,-0.297 1.215,-0.783 v 0.27 q -0.891,1.134 -2.106,1.809 -1.215,0.648 -2.376,0.648 z"
         id="path18" />
      <path
         d="m 22.343979,23 v -0.27 h 0.027 q 0.972,0 1.566,-0.594 0.594,-0.594 0.594,-1.566 v -8.856 q 0,-1.026 -0.432,-1.593 -0.405,-0.567 -1.755,-0.567 v -0.27 h 2.673 q 1.431,0 2.16,-0.27 0.729,-0.297 1.026,-0.756 h 0.135 l 0.027,4.428 q 0.351,-0.81 0.891,-1.701 0.567,-0.891 1.404,-1.485 0.864,-0.621 2.052,-0.621 0.405,0 0.864,0.081 0.459,0.081 0.972,0.297 l -1.053,3.159 q -0.972,-0.54 -1.701,-0.756 -0.702,-0.216 -1.242,-0.216 -0.918,0 -1.377,0.567 -0.432,0.567 -0.756,1.35 v 7.209 q 0,0.972 0.594,1.566 0.594,0.594 1.566,0.594 h 0.027 V 23 Z"
         id="path20" />
      <path
         d="m 33.901955,23 v -0.27 h 0.027 q 0.972,0 1.566,-0.594 0.594,-0.594 0.594,-1.566 v -8.856 q 0,-1.026 -0.432,-1.593 -0.405,-0.567 -1.755,-0.567 v -0.27 h 2.754 q 1.377,0 2.106,-0.297 0.675,-0.297 0.945,-0.729 h 0.27 V 20.57 q 0,0.972 0.594,1.566 0.594,0.594 1.566,0.594 h 0.027 V 23 Z m 4.104,-16.443 q -0.972,0 -1.62,-0.621 -0.621,-0.648 -0.621,-1.62 0,-0.972 0.621,-1.593 0.648,-0.648 1.62,-0.648 0.945,0 1.566,0.648 0.648,0.648 0.648,1.593 0,0.945 -0.648,1.593 -0.621,0.648 -1.566,0.648 z"
         id="path22" />
    </g>
    <g
       aria-label="mnd"
       id="text6"
       style="font-size:98px;letter-spacing:-8;fill:#111110">
      <path
         d="m 1.588,94 v -0.98 h 0.098 q 3.528,0 5.684,-2.156 2.156,-2.156 2.156,-5.684 V 53.036 q 0,-3.724 -1.568,-5.782 -1.47,-2.058 -6.37,-2.058 v -0.98 h 9.702 q 4.018,0 6.174,-0.392 2.254,-0.392 3.332,-0.98 1.078,-0.686 1.568,-1.372 h 0.98 l 0.098,12.74 q 2.548,-5.096 7.742,-8.232 5.194,-3.136 10.976,-3.136 5.586,0 9.31,3.136 3.724,3.136 4.802,8.428 2.744,-5.292 7.84,-8.428 5.194,-3.136 11.172,-3.136 6.566,0 10.486,4.312 4.018,4.312 4.018,11.368 V 85.18 q 0,3.528 2.156,5.684 2.156,2.156 5.684,2.156 h 0.098 V 94 h -29.89 v -0.98 h 0.098 q 3.528,0 5.684,-2.156 2.156,-2.156 2.156,-5.684 V 57.544 q 0,-4.9 -1.96,-7.84 -1.96,-2.94 -5.096,-2.94 -3.038,0 -6.37,2.744 -3.332,2.646 -5.782,6.958 0.098,0.196 0.098,0.49 0,0.294 0,0.49 V 85.18 q 0,3.528 2.156,5.684 2.156,2.156 5.684,2.156 h 0.098 V 94 h -29.89 v -0.98 h 0.098 q 3.528,0 5.684,-2.156 2.156,-2.156 2.156,-5.684 V 57.544 q 0,-4.9 -1.96,-7.84 -1.862,-2.94 -4.998,-2.94 -3.038,0 -6.37,2.646 -3.234,2.548 -5.684,6.958 V 85.18 q 0,3.528 2.156,5.684 2.156,2.156 5.684,2.156 h 0.098 V 94 Z"
         id="path25" />
      <path
         d="m 88.550173,94 v -0.98 h 0.098 q 3.528,0 5.684,-2.156 2.156,-2.156 2.156,-5.684 V 53.036 q 0,-3.724 -1.568,-5.782 -1.47,-2.058 -6.37,-2.058 v -0.98 h 9.702 q 4.997997,0 7.643997,-1.078 2.45,-1.078 3.43,-2.646 h 0.98 l 0.098,13.72 q 2.548,-5.096 7.742,-8.232 5.194,-3.136 10.976,-3.136 6.566,0 10.486,4.312 4.018,4.312 4.018,11.368 V 85.18 q 0,3.528 2.156,5.684 2.156,2.156 5.684,2.156 h 0.098 V 94 h -29.89 v -0.98 h 0.098 q 3.528,0 5.684,-2.156 2.156,-2.156 2.156,-5.684 V 57.544 q 0,-4.9 -1.96,-7.84 -1.862,-2.94 -4.998,-2.94 -3.038,0 -6.37,2.646 -3.234,2.548 -5.684,6.958 V 85.18 q 0,3.528 2.156,5.684 2.156,2.156 5.684,2.156 h 0.098 V 94 Z"
         id="path27" />
      <path
         d="m 179.13818,97.724 -0.098,-13.916 q -2.352,5.096 -7.056,8.428 -4.704,3.234 -10.094,3.234 -5.292,0 -9.506,-3.332 -4.214,-3.332 -6.664,-9.114 -2.45,-5.88 -2.45,-13.23 0,-8.232 3.038,-14.308 3.136,-6.076 8.624,-9.31 5.488,-3.332 12.642,-3.332 4.018,0 6.566,1.274 2.548,1.176 4.606,4.116 V 29.32 q 0,-3.528 -2.254,-5.684 -2.156,-2.156 -5.684,-2.156 V 20.5 h 9.996 q 4.9,0 7.448,-0.98 2.548,-0.98 3.626,-2.744 h 0.98 V 85.18 q 0,3.528 2.156,5.684 2.156,2.156 5.782,2.156 V 94 h -9.996 q -4.312,0 -6.86,0.882 -2.45,0.882 -3.822,2.842 z m -11.858,-6.174 q 2.254,0 4.508,-1.372 2.352,-1.47 4.214,-3.822 1.862,-2.352 2.744,-4.998 V 57.446 q -0.49,-5.88 -2.94,-9.408 -2.352,-3.528 -6.174,-3.528 -5.096,0 -7.938,6.468 -2.744,6.468 -2.744,19.11 0,21.462 8.33,21.462 z"
         id="path29" />
    </g>
    <g
       aria-label="s"
       id="text8"
       style="font-size:38px;fill:#111110">
      <path
         d="m 184.752,94.532 q -0.988,0 -1.482,-0.076 -0.494,-0.076 -0.95,-0.19 -0.418,-0.114 -1.14,-0.19 Q 180.458,94 178.976,94 l -0.912,-7.144 h 0.494 q 0.608,3.572 2.28,5.396 1.672,1.786 3.648,1.786 1.938,0 2.926,-0.798 1.026,-0.798 1.026,-2.166 0,-0.874 -0.456,-1.52 -0.418,-0.684 -1.482,-1.368 -1.064,-0.722 -2.888,-1.71 l -1.102,-0.608 q -2.09,-1.178 -3.116,-2.736 -0.988,-1.596 -0.988,-3.42 0,-2.584 1.862,-4.066 1.9,-1.482 5.054,-1.482 0.798,0 1.292,0.076 0.494,0.076 0.95,0.19 0.456,0.114 1.14,0.19 0.684,0.076 1.824,0.076 l 0.532,6.118 h -0.456 q -0.228,-1.786 -1.026,-3.154 -0.76,-1.406 -1.824,-2.166 -1.064,-0.798 -2.166,-0.798 -1.444,0 -2.318,0.76 -0.836,0.76 -0.836,2.128 0,1.026 0.646,1.9 0.684,0.836 2.584,1.824 l 1.14,0.57 q 2.66,1.368 3.876,2.85 1.216,1.482 1.216,3.8 0,5.928 -7.144,6.004 z"
         id="path32" />
    </g>
  </g>
</svg>
